<svg id="Layer_1" data-name="Layer 1" xmlns="http://www.w3.org/2000/svg"
viewBox="0 0 423.64 268.44">
<title>The Autism Group-White and Teal</title>


<path
d="M361.54,308.69h-0.25a19,19,0,0,1-3,2.92,21.41,21.41,0,0,1-4.12,2.58,25.5,25.5,0,0,1-5.11,1.81,24.81,24.81,0,0,1-5.91.68,23.06,23.06,0,0,1-7.78-1.26,17,17,0,0,1-6.09-3.69,16.69,16.69,0,0,1-4-5.94,21,21,0,0,1-1.42-7.94,18.64,18.64,0,0,1,1.57-7.81,16.54,16.54,0,0,1,4.4-5.84,19.89,19.89,0,0,1,6.8-3.69,28.19,28.19,0,0,1,8.77-1.29,48.62,48.62,0,0,1,8.43.8,43.87,43.87,0,0,1,6.89,1.85H361V277.8a26.06,26.06,0,0,0-.31-4.25,10.91,10.91,0,0,0-1-3.26,12.42,12.42,0,0,0-5.11-4.89q-3.51-1.94-9.47-1.94a40.11,40.11,0,0,0-8.34.83A52.64,52.64,0,0,0,329,266.6v-8a24.89,24.89,0,0,1,3.48-1.38,40.24,40.24,0,0,1,4.21-1.11,44.52,44.52,0,0,1,4.68-.71q2.46-.24,4.92-0.25,8.86,0,14.49,3.14a18.67,18.67,0,0,1,8.09,8.31,16.79,16.79,0,0,1,1.32,4.34,31.45,31.45,0,0,1,.4,5.2v39h-8ZM361,289.49q-2.63-.74-6.25-1.42a47,47,0,0,0-8-.74q-6.06,0-9.49,2.58t-3.43,7.94a12.09,12.09,0,0,0,.86,4.74,9.11,9.11,0,0,0,2.36,3.35,9.7,9.7,0,0,0,3.55,2,14.53,14.53,0,0,0,4.38.65,17.64,17.64,0,0,0,5.7-.89,24.11,24.11,0,0,0,4.69-2.12,25.67,25.67,0,0,0,3.49-2.46q1.44-1.23,2.11-1.91V289.49Z"
transform="translate(-213.4 -152.5)" style="fill:#fff"/><path
d="M404.23,316.68a31.33,31.33,0,0,1-8.18-1,22.16,22.16,0,0,1-6.37-2.77,18.52,18.52,0,0,1-4.65-4.28,21.11,21.11,0,0,1-3-5.45,21.57,21.57,0,0,1-1.23-4.86,42,42,0,0,1-.37-5.78V256.7H390v35.81a22.18,22.18,0,0,0,1.29,8.12,12.09,12.09,0,0,0,4.77,5.81,15.24,15.24,0,0,0,8.4,2.12,14.72,14.72,0,0,0,8.71-2.34,12.81,12.81,0,0,0,4.71-6.28,22.92,22.92,0,0,0,1-7.44V256.7h9.54v35.93a42.16,42.16,0,0,1-.34,5.51,24.43,24.43,0,0,1-1.08,4.71,21.29,21.29,0,0,1-3,5.57,18.84,18.84,0,0,1-4.77,4.4,23,23,0,0,1-6.55,2.86A32,32,0,0,1,404.23,316.68Z"
transform="translate(-213.4 -152.5)" style="fill:#fff"/><path
d="M472.61,315.27a19.83,19.83,0,0,1-3.75.92,40.79,40.79,0,0,1-6,.49,25.18,25.18,0,0,1-8-1.14,15,15,0,0,1-5.63-3.26,13.22,13.22,0,0,1-3.35-5.14,19.32,19.32,0,0,1-1.11-6.71V264.88H433.48V256.7h11.26v-16h9.54v16h17.47v8.18H454.27V299a11.58,11.58,0,0,0,.58,3.75,7.6,7.6,0,0,0,1.85,3,8.58,8.58,0,0,0,3.23,2,14.06,14.06,0,0,0,4.74.71,28,28,0,0,0,4-.31,31.79,31.79,0,0,0,3.91-.8v8Z"
transform="translate(-213.4 -152.5)" style="fill:#fff"/><path
d="M512.38,272.26a7,7,0,0,0,1,3.94,7.72,7.72,0,0,0,2.74,2.49,17.68,17.68,0,0,0,4,1.57q2.26,0.62,4.66,1.11,3.3,0.74,6.25,1.63a18.61,18.61,0,0,1,5.45,2.68,13,13,0,0,1,4,4.83,17.59,17.59,0,0,1,1.54,7.91,17.18,17.18,0,0,1-1.72,7.84,15.94,15.94,0,0,1-4.86,5.72,22.68,22.68,0,0,1-7.51,3.51,36.13,36.13,0,0,1-9.6,1.2,45.56,45.56,0,0,1-5.81-.34,37.28,37.28,0,0,1-4.61-.86,30.83,30.83,0,0,1-3.42-1.08,22.17,22.17,0,0,1-2.34-1v-8a50.48,50.48,0,0,0,7.19,2.34,33.39,33.39,0,0,0,7.85.86,27.7,27.7,0,0,0,6.1-.62,15.48,15.48,0,0,0,4.68-1.82,8.6,8.6,0,0,0,3-3,8.24,8.24,0,0,0,1.06-4.21,7.75,7.75,0,0,0-1-4.06,8.07,8.07,0,0,0-2.6-2.65,15.73,15.73,0,0,0-3.77-1.72q-2.14-.68-4.5-1.23-3.08-.68-6.25-1.6a22.09,22.09,0,0,1-5.77-2.58,12.49,12.49,0,0,1-4.2-4.52,15,15,0,0,1-1.6-7.35,18,18,0,0,1,1.66-8,15.89,15.89,0,0,1,4.49-5.6,19.51,19.51,0,0,1,6.58-3.32,27.89,27.89,0,0,1,7.94-1.11,41.51,41.51,0,0,1,9,.92,44.69,44.69,0,0,1,7.54,2.34v8.12a55.83,55.83,0,0,0-7.3-2.31,34.54,34.54,0,0,0-7.59-1,20.52,20.52,0,0,0-5.64.68,11,11,0,0,0-3.84,1.88,7.17,7.17,0,0,0-2.19,2.83A9.12,9.12,0,0,0,512.38,272.26Z"
transform="translate(-213.4 -152.5)" style="fill:#fff"/><path
d="M597.93,315.15H588.4V277.55a22.07,22.07,0,0,0-.83-6.49,11.48,11.48,0,0,0-2.4-4.4,9.38,9.38,0,0,0-3.75-2.52,14.16,14.16,0,0,0-4.89-.8,16.61,16.61,0,0,0-9.29,2.74,27.61,27.61,0,0,0-7.5,7.54v41.53h-9.54V256.7h7.38l1.85,8.12h0.18a33.61,33.61,0,0,1,3.48-3.78,22.49,22.49,0,0,1,4.18-3.08,21.09,21.09,0,0,1,5.08-2.06,23.35,23.35,0,0,1,6-.74,17.91,17.91,0,0,1,10.83,3.14,20.23,20.23,0,0,1,6.64,8.55h0.25a31.08,31.08,0,0,1,8.87-8.58,21.58,21.58,0,0,1,11.65-3.11,27,27,0,0,1,6.53.86,16.52,16.52,0,0,1,6.35,3.17,17.45,17.45,0,0,1,4.81,6.37A24.67,24.67,0,0,1,636.2,276v39.13h-9.54V277.55a22.07,22.07,0,0,0-.83-6.49,11.48,11.48,0,0,0-2.4-4.4,9.38,9.38,0,0,0-3.75-2.52,14.16,14.16,0,0,0-4.89-.8,16.75,16.75,0,0,0-9.32,2.74,27.41,27.41,0,0,0-7.54,7.54v41.53Z"
transform="translate(-213.4 -152.5)" style="fill:#fff"/><path
d="M405,226.39a8.49,8.49,0,0,1-1.61.4,17.42,17.42,0,0,1-2.58.21,10.81,10.81,0,0,1-3.43-.49,6.42,6.42,0,0,1-2.41-1.4,5.66,5.66,0,0,1-1.44-2.2A8.28,8.28,0,0,1,393,220V204.79h-4.83v-3.51H393v-6.86h4.09v6.86h7.49v3.51h-7.49V219.4a5,5,0,0,0,.25,1.61,3.25,3.25,0,0,0,.79,1.28,3.67,3.67,0,0,0,1.38.84,6,6,0,0,0,2,.3,12,12,0,0,0,1.73-.13A13.67,13.67,0,0,0,405,223v3.43Z"
transform="translate(-213.4 -152.5)" style="fill:#fff"/><path
d="M413.24,204.71h0.08a12.6,12.6,0,0,1,1.53-1.62,9.33,9.33,0,0,1,1.87-1.29,10.68,10.68,0,0,1,2.21-.86,9.9,9.9,0,0,1,2.56-.32,11,11,0,0,1,2.85.38,7.14,7.14,0,0,1,2.64,1.36,7,7,0,0,1,2,2.72,11.23,11.23,0,0,1,.76,4.48v16.77h-4.09V210.22a7.55,7.55,0,0,0-1.15-4.56,4.39,4.39,0,0,0-3.76-1.53,7.86,7.86,0,0,0-4.11,1.17,11,11,0,0,0-3.37,3.23v17.8h-4.09V188.15h4.09v16.56Z"
transform="translate(-213.4 -152.5)" style="fill:#fff"/><path
d="M446.83,223.43a19.14,19.14,0,0,0,3.7-.33,22.1,22.1,0,0,0,3.34-.94v3.4a13.39,13.39,0,0,1-3.32,1,22.45,22.45,0,0,1-4.24.38,18,18,0,0,1-5.05-.69,10.48,10.48,0,0,1-4.09-2.21,10.27,10.27,0,0,1-2.7-4,16.12,16.12,0,0,1-1-5.95,16.89,16.89,0,0,1,.95-5.95A12.51,12.51,0,0,1,437,204a10.3,10.3,0,0,1,3.63-2.53,11.17,11.17,0,0,1,4.29-.84,10.94,10.94,0,0,1,3.93.7,8.07,8.07,0,0,1,3.17,2.2,10.79,10.79,0,0,1,2.12,3.88,18.43,18.43,0,0,1,.78,5.7v0.54c0,0.15,0,.49,0,1h-17.3a10.21,10.21,0,0,0,.72,4.07,7.15,7.15,0,0,0,2,2.72,7.87,7.87,0,0,0,2.94,1.52A13.4,13.4,0,0,0,446.83,223.43Zm-2.16-19.3a6.27,6.27,0,0,0-2.63.55,6.81,6.81,0,0,0-2.12,1.5,7.6,7.6,0,0,0-1.47,2.23,8.68,8.68,0,0,0-.69,2.73h12.81a9.48,9.48,0,0,0-.39-2.76,6.67,6.67,0,0,0-1.13-2.23,5.29,5.29,0,0,0-1.84-1.49A5.66,5.66,0,0,0,444.67,204.13Z"
transform="translate(-213.4 -152.5)" style="fill:#fff"/><path
d="M533.79,332.62a9.72,9.72,0,0,1,2.85.42,8.16,8.16,0,0,1,2.08,1,7.38,7.38,0,0,1,1.38,1.17,5.42,5.42,0,0,1,.7.92h0.11l0.84-2.85h3.09v26.53a12.41,12.41,0,0,1-.95,5,9.63,9.63,0,0,1-2.66,3.57,11.28,11.28,0,0,1-4.13,2.12,19.17,19.17,0,0,1-5.34.7,20.38,20.38,0,0,1-4.43-.44,11.88,11.88,0,0,1-3.06-1v-3.46a18.43,18.43,0,0,0,1.74.62q0.84,0.25,1.74.42a17.9,17.9,0,0,0,1.83.25c0.62,0.05,1.31.08,2.07,0.08q4.4,0,6.75-2.06t2.35-6.28V356h-0.08a8.86,8.86,0,0,1-3.12,2.23,10.42,10.42,0,0,1-4.07.75,11.84,11.84,0,0,1-2.27-.24,10.49,10.49,0,0,1-4.75-2.31,9.26,9.26,0,0,1-2-2.35,13,13,0,0,1-1.36-3.34,17.3,17.3,0,0,1-.51-4.46,17.55,17.55,0,0,1,.95-6.08,12.67,12.67,0,0,1,2.5-4.26,10,10,0,0,1,3.56-2.52A10.69,10.69,0,0,1,533.79,332.62ZM526.91,346a13.78,13.78,0,0,0,.71,4.83,7.76,7.76,0,0,0,1.81,2.91,5.88,5.88,0,0,0,2.39,1.42,8.67,8.67,0,0,0,2.45.38,8.41,8.41,0,0,0,3.56-.76,9.57,9.57,0,0,0,2.93-2.08v-13.1a9.24,9.24,0,0,0-.95-1.08,8.31,8.31,0,0,0-1.41-1.12,8.65,8.65,0,0,0-1.83-.87,7.36,7.36,0,0,0-5.45.37,6.63,6.63,0,0,0-2.32,2,9.2,9.2,0,0,0-1.41,3.1A15.71,15.71,0,0,0,526.91,346Z"
transform="translate(-213.4 -152.5)" style="fill:#fff"/><path
d="M563.3,336.61H563a15.33,15.33,0,0,0-2.85.26,12,12,0,0,0-2.62.8A10,10,0,0,0,555.3,339a7.16,7.16,0,0,0-1.65,1.87v17.46h-4.09v-25h3.16l0.79,4h0.08a9.28,9.28,0,0,1,1.49-1.82,10.16,10.16,0,0,1,4.42-2.46,10.54,10.54,0,0,1,2.77-.36h0.54l0.49,0v3.93Z"
transform="translate(-213.4 -152.5)" style="fill:#fff"/><path
d="M586.8,345.84a16.34,16.34,0,0,1-.84,5.38,12.17,12.17,0,0,1-2.39,4.15,10.59,10.59,0,0,1-3.73,2.68,12.22,12.22,0,0,1-4.91.95,12.51,12.51,0,0,1-5-.95,10.55,10.55,0,0,1-3.74-2.68,11.81,11.81,0,0,1-2.36-4.15,16.77,16.77,0,0,1-.82-5.38,16.38,16.38,0,0,1,.84-5.41,12.29,12.29,0,0,1,2.38-4.17,10.49,10.49,0,0,1,3.74-2.69,12.3,12.3,0,0,1,4.92-.95,12.53,12.53,0,0,1,5,.95,10.35,10.35,0,0,1,3.75,2.69,12.09,12.09,0,0,1,2.35,4.17A16.86,16.86,0,0,1,586.8,345.84Zm-4.27,0a13.75,13.75,0,0,0-.57-4.13,9.14,9.14,0,0,0-1.58-3.06,6.71,6.71,0,0,0-2.41-1.9,7.56,7.56,0,0,0-6.12,0,6.71,6.71,0,0,0-2.41,1.9,9.14,9.14,0,0,0-1.58,3.06,15.22,15.22,0,0,0,0,8.23,8.87,8.87,0,0,0,1.59,3,6.91,6.91,0,0,0,2.43,1.89,7.22,7.22,0,0,0,3.06.64,7.13,7.13,0,0,0,3-.64,6.8,6.8,0,0,0,2.4-1.89,9,9,0,0,0,1.58-3A13.64,13.64,0,0,0,582.53,345.84Z"
transform="translate(-213.4 -152.5)" style="fill:#fff"/><path
d="M600,359a13.4,13.4,0,0,1-3.51-.42,9.52,9.52,0,0,1-2.73-1.19,8,8,0,0,1-2-1.83,9.06,9.06,0,0,1-1.29-2.33,9.27,9.27,0,0,1-.53-2.08,18,18,0,0,1-.16-2.48V333.28h4.09v15.35a9.5,9.5,0,0,0,.55,3.48,5.19,5.19,0,0,0,2,2.49,6.54,6.54,0,0,0,3.6.91,6.31,6.31,0,0,0,3.73-1,5.48,5.48,0,0,0,2-2.69,9.81,9.81,0,0,0,.45-3.19V333.28h4.09v15.4a18.16,18.16,0,0,1-.14,2.36,10.51,10.51,0,0,1-.46,2,9.13,9.13,0,0,1-1.31,2.39,8.07,8.07,0,0,1-2,1.88,9.86,9.86,0,0,1-2.81,1.23A13.73,13.73,0,0,1,600,359Z"
transform="translate(-213.4 -152.5)" style="fill:#fff"/><path
d="M637,345.52a18.65,18.65,0,0,1-.52,4.63,14.42,14.42,0,0,1-1.36,3.52,9.75,9.75,0,0,1-2,2.52,11.22,11.22,0,0,1-2.36,1.63,10.47,10.47,0,0,1-2.48.9A11.12,11.12,0,0,1,626,359a9.81,9.81,0,0,1-4-.75,9.11,9.11,0,0,1-3-2.23h-0.08v14.58h-4V333.28h3.08l0.87,2.85h0.08a5.49,5.49,0,0,1,.88-1,9.64,9.64,0,0,1,1.45-1.07,10.11,10.11,0,0,1,2.19-1,8.82,8.82,0,0,1,2.78-.42,11.87,11.87,0,0,1,4.07.71,9.08,9.08,0,0,1,3.47,2.27,11.38,11.38,0,0,1,2.41,4A17,17,0,0,1,637,345.52Zm-4.27.05a15.22,15.22,0,0,0-.46-3.93,8.47,8.47,0,0,0-1.39-3,6.27,6.27,0,0,0-2.28-1.89,7.06,7.06,0,0,0-3.13-.66,7.42,7.42,0,0,0-2.32.34,8.71,8.71,0,0,0-1.9.87,8.15,8.15,0,0,0-1.46,1.13,12.12,12.12,0,0,0-1,1.08v13.1a10,10,0,0,0,3,2.08,8.41,8.41,0,0,0,3.57.76,7.81,7.81,0,0,0,2.47-.43,6.06,6.06,0,0,0,2.4-1.56,8.49,8.49,0,0,0,1.82-3A14.22,14.22,0,0,0,632.77,345.57Z"
transform="translate(-213.4 -152.5)" style="fill:#fff"/><path
d="M487.19,243.21s4.84,0.14,5.25,3.18-1.15,5.67-2.26,7.18c-0.92,1.25-1,1.83-3,2-2-.21-2.07-0.79-3-2-1.11-1.5-2.66-4.16-2.26-7.18S487.19,243.21,487.19,243.21Z"
transform="translate(-213.4 -152.5)" style="fill:#fff"/><path
d="M487.19,316.69c4.22,0,4-33.55,5.66-39.5,2.09-7.59,3.85-9.39,1.05-15.23-1.59-3.31-6.71-2.89-6.71-2.89s-5.12-.42-6.71,2.89c-2.8,5.83-1,7.63,1.05,15.23C483.16,283.13,483.4,316.69,487.19,316.69Z"
transform="translate(-213.4 -152.5)" style="fill:#fff"/><path
d="M480.2,283a2,2,0,0,1-2.35,1.65h0a2,2,0,0,1-1.65-2.35l3.56-20.2a2,2,0,0,1,2.35-1.65h0a2,2,0,0,1,1.65,2.35Z"
transform="translate(-213.4 -152.5)" style="fill:#fff"/><path
d="M494.07,283a2,2,0,0,0,2.35,1.65h0a2,2,0,0,0,1.65-2.35l-3.56-20.2a2,2,0,0,0-2.35-1.65h0a2,2,0,0,0-1.65,2.35Z"
transform="translate(-213.4 -152.5)" style="fill:#fff"/><path
d="M347.66,152.5s4.84,0.14,5.25,3.18-1.15,5.67-2.26,7.18c-0.92,1.25-1,1.83-3,2-2-.21-2.07-0.79-3-2-1.11-1.5-2.66-4.16-2.26-7.18S347.66,152.5,347.66,152.5Z"
transform="translate(-213.4 -152.5)" style="fill:#009cb4"/><path
d="M347.66,226c4.22,0,4-33.55,5.66-39.5,2.09-7.59,3.85-9.39,1.05-15.22-1.59-3.31-6.71-2.89-6.71-2.89s-5.12-.42-6.71,2.89c-2.8,5.83-1,7.63,1.05,15.22C343.64,192.43,343.88,226,347.66,226Z"
transform="translate(-213.4 -152.5)" style="fill:#009cb4"/><path
d="M340.68,192.26a2,2,0,0,1-2.35,1.65h0a2,2,0,0,1-1.65-2.35l3.56-20.2a2,2,0,0,1,2.35-1.65h0a2,2,0,0,1,1.65,2.35Z"
transform="translate(-213.4 -152.5)" style="fill:#009cb4"/><path
d="M354.55,192.26a2,2,0,0,0,2.35,1.65h0a2,2,0,0,0,1.65-2.35L355,171.36a2,2,0,0,0-2.35-1.65h0a2,2,0,0,0-1.65,2.35Z"
transform="translate(-213.4 -152.5)" style="fill:#009cb4"/><path
d="M280.55,170.46s4.26-2.3,6.13.13,1.84,5.49,1.63,7.34c-0.17,1.54.05,2.08-1.57,3.26-1.83.82-2.19,0.35-3.61-.27-1.71-.75-4.38-2.27-5.54-5.09S280.55,170.46,280.55,170.46Z"
transform="translate(-213.4 -152.5)" style="fill:#009cb4"/><path
d="M317.29,234.09c3.65-2.11-13.29-31.07-14.85-37-2-7.62-1.36-10.06-6.7-13.71-3-2.07-7.26.86-7.26,0.86s-4.65,2.2-4.37,5.86c0.49,6.45,2.92,7.13,8.52,12.66C297,207,314,236,317.29,234.09Z"
transform="translate(-213.4 -152.5)" style="fill:#009cb4"/><path
d="M294.38,208.39a2,2,0,0,1-1.21,2.6h0a2,2,0,0,1-2.6-1.21l-7-19.27a2,2,0,0,1,1.21-2.6h0a2,2,0,0,1,2.6,1.21Z"
transform="translate(-213.4 -152.5)" style="fill:#009cb4"/><path
d="M306.39,201.45a2,2,0,0,0,2.86.25h0a2,2,0,0,0,.25-2.86l-13.18-15.71a2,2,0,0,0-2.86-.25h0a2,2,0,0,0-.25,2.86Z"
transform="translate(-213.4 -152.5)" style="fill:#009cb4"/><path
d="M231.4,219.57s2.54-4.13,5.38-3,4.33,3.83,5.09,5.54c0.62,1.42,1.08,1.78.27,3.61-1.18,1.62-1.72,1.4-3.26,1.57-1.86.21-4.93,0.23-7.34-1.63S231.4,219.57,231.4,219.57Z"
transform="translate(-213.4 -152.5)" style="fill:#009cb4"/><path
d="M295,256.31c2.11-3.65-27-20.26-31.38-24.65-5.53-5.61-6.21-8-12.66-8.52-3.66-.28-5.86,4.37-5.86,4.37s-2.93,4.23-.86,7.26c3.65,5.34,6.09,4.71,13.71,6.7C264,243,293.15,259.58,295,256.31Z"
transform="translate(-213.4 -152.5)" style="fill:#009cb4"/><path
d="M262.35,245.5a2,2,0,0,1,.25,2.86h0a2,2,0,0,1-2.86.25L244,235.42a2,2,0,0,1-.25-2.86h0a2,2,0,0,1,2.86-.25Z"
transform="translate(-213.4 -152.5)" style="fill:#009cb4"/><path
d="M269.28,233.49a2,2,0,0,0,2.6-1.21h0a2,2,0,0,0-1.21-2.6l-19.27-7a2,2,0,0,0-2.6,1.21h0a2,2,0,0,0,1.21,2.6Z"
transform="translate(-213.4 -152.5)" style="fill:#009cb4"/><path
d="M213.4,286.67s0.14-4.84,3.18-5.25,5.67,1.15,7.18,2.26c1.25,0.92,1.83,1,2,3-0.21,2-.79,2.07-2,3-1.5,1.11-4.16,2.66-7.18,2.26S213.4,286.67,213.4,286.67Z"
transform="translate(-213.4 -152.5)" style="fill:#009cb4"/><path
d="M286.88,286.67c0-4.22-33.55-4-39.5-5.66-7.59-2.09-9.39-3.85-15.22-1.05-3.31,1.59-2.89,6.71-2.89,6.71s-0.42,5.12,2.89,6.71c5.83,2.8,7.63,1,15.22-1.05C253.32,290.69,286.88,290.45,286.88,286.67Z"
transform="translate(-213.4 -152.5)" style="fill:#009cb4"/><path
d="M253.16,293.65a2,2,0,0,1,1.65,2.35h0a2,2,0,0,1-2.35,1.65l-20.2-3.56a2,2,0,0,1-1.65-2.35h0a2,2,0,0,1,2.35-1.65Z"
transform="translate(-213.4 -152.5)" style="fill:#009cb4"/><path
d="M253.16,279.79a2,2,0,0,0,1.65-2.35h0a2,2,0,0,0-2.35-1.65l-20.2,3.56a2,2,0,0,0-1.65,2.35h0a2,2,0,0,0,2.35,1.65Z"
transform="translate(-213.4 -152.5)" style="fill:#009cb4"/><path
d="M231.35,353.79s-2.3-4.26.13-6.13,5.49-1.84,7.34-1.63c1.54,0.17,2.08-.05,3.26,1.57,0.82,1.83.35,2.19-.27,3.61-0.75,1.71-2.27,4.38-5.09,5.54S231.35,353.79,231.35,353.79Z"
transform="translate(-213.4 -152.5)" style="fill:#009cb4"/><path
d="M295,317c-2.11-3.65-31.07,13.29-37,14.85-7.62,2-10.06,1.36-13.71,6.7-2.07,3,.86,7.26.86,7.26s2.2,4.65,5.86,4.37c6.45-.49,7.13-2.92,12.66-8.52C267.94,337.3,296.88,320.32,295,317Z"
transform="translate(-213.4 -152.5)" style="fill:#009cb4"/><path
d="M269.28,339.95a2,2,0,0,1,2.6,1.21h0a2,2,0,0,1-1.21,2.6l-19.27,7a2,2,0,0,1-2.6-1.21h0A2,2,0,0,1,250,347Z"
transform="translate(-213.4 -152.5)" style="fill:#009cb4"/><path
d="M262.35,327.94a2,2,0,0,0,.25-2.86h0a2,2,0,0,0-2.86-.25L244,338a2,2,0,0,0-.25,2.86h0a2,2,0,0,0,2.86.25Z"
transform="translate(-213.4 -152.5)" style="fill:#009cb4"/><path
d="M280.46,402.93s-4.13-2.54-3-5.38,3.83-4.33,5.54-5.09c1.42-.62,1.78-1.08,3.61-0.27,1.62,1.18,1.4,1.72,1.57,3.26,0.21,1.86.23,4.93-1.63,7.34S280.46,402.93,280.46,402.93Z"
transform="translate(-213.4 -152.5)" style="fill:#009cb4"/><path
d="M317.2,339.29c-3.65-2.11-20.26,27-24.65,31.38-5.61,5.53-8,6.21-8.52,12.66-0.28,3.66,4.37,5.86,4.37,5.86s4.23,2.93,7.26.86c5.34-3.65,4.71-6.09,6.7-13.71C303.91,370.36,320.48,341.19,317.2,339.29Z"
transform="translate(-213.4 -152.5)" style="fill:#009cb4"/><path
d="M306.39,372a2,2,0,0,1,2.86-.25h0a2,2,0,0,1,.25,2.86L296.32,390.3a2,2,0,0,1-2.86.25h0a2,2,0,0,1-.25-2.86Z"
transform="translate(-213.4 -152.5)" style="fill:#009cb4"/><path
d="M294.38,365.05a2,2,0,0,0-1.21-2.6h0a2,2,0,0,0-2.6,1.21l-7,19.27a2,2,0,0,0,1.21,2.6h0a2,2,0,0,0,2.6-1.21Z"
transform="translate(-213.4 -152.5)" style="fill:#009cb4"/><path
d="M347.57,420.94s-4.84-.14-5.25-3.18,1.15-5.67,2.26-7.18c0.92-1.25,1-1.83,3-2,2,0.21,2.07.79,3,2,1.11,1.5,2.66,4.16,2.26,7.18S347.57,420.94,347.57,420.94Z"
transform="translate(-213.4 -152.5)" style="fill:#009cb4"/><path
d="M347.57,347.46c-4.22,0-4,33.55-5.66,39.5-2.09,7.59-3.85,9.39-1.05,15.22,1.59,3.31,6.71,2.89,6.71,2.89s5.12,0.42,6.71-2.89c2.8-5.83,1-7.63-1.05-15.22C351.59,381,351.35,347.46,347.57,347.46Z"
transform="translate(-213.4 -152.5)" style="fill:#009cb4"/><path
d="M354.55,381.17a2,2,0,0,1,2.35-1.65h0a2,2,0,0,1,1.65,2.35L355,402.08a2,2,0,0,1-2.35,1.65h0a2,2,0,0,1-1.65-2.35Z"
transform="translate(-213.4 -152.5)" style="fill:#009cb4"/><path
d="M340.68,381.17a2,2,0,0,0-2.35-1.65h0a2,2,0,0,0-1.65,2.35l3.56,20.2a2,2,0,0,0,2.35,1.65h0a2,2,0,0,0,1.65-2.35Z"
transform="translate(-213.4 -152.5)" style="fill:#009cb4"/></svg>
